HIERARCHY
ROOT Hips
{
	OFFSET 0.000000 0.000000 0.000000
	CHANNELS 6 Xposition Yposition Zposition Xrotation Yrotation Zrotation
	JOINT LeftUpLeg_virtual
	{
		OFFSET 0.000000 0.000000 0.000000
		CHANNELS 3 Xrotation Yrotation Zrotation
		JOINT LeftUpLeg
		{
			OFFSET 13.026900 -6.336304 -1.092800
			CHANNELS 3 Xrotation Yrotation Zrotation
			JOINT LeftLeg
			{
				OFFSET 0.524474 -46.096886 9.782700
				CHANNELS 3 Xrotation Yrotation Zrotation
				JOINT LeftFoot
				{
					OFFSET -0.524474 -53.427422 -12.948200
					CHANNELS 3 Xrotation Yrotation Zrotation
					JOINT LeftToeBase
					{
						OFFSET 0.192200 -14.009700 16.364100
						CHANNELS 3 Xrotation Yrotation Zrotation
						JOINT LeftToe_End
						{
							OFFSET -1.784700 -0.561700 9.474800
							CHANNELS 3 Xrotation Yrotation Zrotation
							End Site
							{
								OFFSET 0 0 0
							}
						}
					}
				}
			}
		}
	}
	JOINT RightUpLeg_virtual
	{
		OFFSET 0.000000 0.000000 0.000000
		CHANNELS 3 Xrotation Yrotation Zrotation
		JOINT RightUpLeg
		{
			OFFSET -12.883000 -6.336304 -1.092800
			CHANNELS 3 Xrotation Yrotation Zrotation
			JOINT RightLeg
			{
				OFFSET -0.524587 -46.096825 9.782800
				CHANNELS 3 Xrotation Yrotation Zrotation
				JOINT RightFoot
				{
					OFFSET 0.524587 -53.427383 -12.948300
					CHANNELS 3 Xrotation Yrotation Zrotation
					JOINT RightToeBase
					{
						OFFSET -0.192200 -14.009700 16.364100
						CHANNELS 3 Xrotation Yrotation Zrotation
						JOINT RightToe_End
						{
							OFFSET 1.784700 -0.561700 9.474800
							CHANNELS 3 Xrotation Yrotation Zrotation
							End Site
							{
								OFFSET 0 0 0
							}
						}
					}
				}
			}
		}
	}
	JOINT Spine_virtual
	{
		OFFSET 0.000000 0.000000 0.000000
		CHANNELS 3 Xrotation Yrotation Zrotation
		JOINT Spine
		{
			OFFSET 0.072000 7.257294 -0.789700
			CHANNELS 3 Xrotation Yrotation Zrotation
			JOINT Spine1
			{
				OFFSET 0.000000 12.508769 -0.658067
				CHANNELS 3 Xrotation Yrotation Zrotation
				JOINT Spine1_split
				{
					OFFSET 0.000000 12.508769 -0.658067
					CHANNELS 3 Xrotation Yrotation Zrotation
					JOINT Spine2
					{
						OFFSET 0.000000 12.508769 -0.658067
						CHANNELS 3 Xrotation Yrotation Zrotation
						JOINT Neck_virtual
						{
							OFFSET 0.000000 0.000000 0.000000
							CHANNELS 3 Xrotation Yrotation Zrotation
							JOINT Neck
							{
								OFFSET 0.000000 14.033295 7.520400
								CHANNELS 3 Xrotation Yrotation Zrotation
								JOINT Head
								{
									OFFSET 0.000000 8.198502 5.703100
									CHANNELS 3 Xrotation Yrotation Zrotation
									JOINT HeadTop_End
									{
										OFFSET 0.000000 17.760803 13.332701
										CHANNELS 3 Xrotation Yrotation Zrotation
										End Site
										{
											OFFSET 0 0 0
										}
									}
								}
							}
						}
						JOINT LeftShoulder_virtual
						{
							OFFSET 0.000000 0.000000 0.000000
							CHANNELS 3 Xrotation Yrotation Zrotation
							JOINT LeftShoulder
							{
								OFFSET 6.292450 5.785301 -0.669000
								CHANNELS 3 Xrotation Yrotation Zrotation
								JOINT LeftShoulder_split
								{
									OFFSET 6.292450 5.785301 -0.669000
									CHANNELS 3 Xrotation Yrotation Zrotation
									JOINT LeftArm
									{
										OFFSET 13.907140 -6.093903 1.965100
										CHANNELS 3 Xrotation Yrotation Zrotation
										JOINT LeftForeArm
										{
											OFFSET 34.140198 0.000000 0.000000
											CHANNELS 3 Xrotation Yrotation Zrotation
											JOINT LeftHand
											{
												OFFSET 40.960209 0.000000 0.000000
												CHANNELS 3 Xrotation Yrotation Zrotation
												End Site
												{
													OFFSET 0 0 0
												}
											}
										}
									}
								}
							}
						}
						JOINT RightShoulder_virtual
						{
							OFFSET 0.000000 0.000000 0.000000
							CHANNELS 3 Xrotation Yrotation Zrotation
							JOINT RightShoulder
							{
								OFFSET -6.292450 5.785301 -0.669000
								CHANNELS 3 Xrotation Yrotation Zrotation
								JOINT RightShoulder_split
								{
									OFFSET -6.292450 5.785301 -0.669000
									CHANNELS 3 Xrotation Yrotation Zrotation
									JOINT RightArm
									{
										OFFSET -13.907140 -6.093903 1.965100
										CHANNELS 3 Xrotation Yrotation Zrotation
										JOINT RightForeArm
										{
											OFFSET -34.140198 0.000000 0.000000
											CHANNELS 3 Xrotation Yrotation Zrotation
											JOINT RightHand
											{
												OFFSET -40.960209 0.000000 0.000000
												CHANNELS 3 Xrotation Yrotation Zrotation
												End Site
												{
													OFFSET 0 0 0
												}
											}
										}
									}
								}
							}
						}
					}
				}
			}
		}
	}
}
MOTION
Frames: 5
Frame Time: 0.03333333
-0.065754 101.551544 44.568916 0.000000 0.000000 0.000000 29.573329 0.981527 -9.852815 -88.221257 1.715235 16.909668 51.769952 6.189220 -6.316528 11.796437 -3.006974 10.824661 -1.536208 1.372596 2.839208 0.000000 0.000000 0.000000 30.852337 2.727562 -11.380574 -9.646754 -32.374673 -19.136814 68.703732 18.430968 -6.010459 11.422687 -32.003261 12.803979 -5.588420 4.395255 1.651669 0.000000 0.000000 0.000000 30.941184 9.093584 -14.649794 5.033069 7.022847 -12.677725 11.690892 9.536165 -4.870647 0.210343 0.247990 0.063478 0.000000 0.000000 0.000000 15.763445 10.592893 -5.600645 -17.851533 0.278224 13.191417 -33.817783 -35.892716 11.762180 0.000000 0.000000 0.000000 12.368655 9.882736 -5.466049 0.127948 3.850719 -1.403952 5.947749 0.350063 -0.233851 7.956014 -40.588317 -31.661502 -14.608494 -30.312260 -7.208556 0.000000 0.000000 0.000000 14.026055 9.795243 -4.746117 -3.036595 13.452268 -12.989620 -1.374260 -0.210264 0.646575 -38.643605 61.659799 62.706061 -16.979691 27.023133 0.687644 0.000000 0.000000 0.000000 
-0.295327 100.836365 46.228767 0.000000 0.000000 0.000000 27.712144 2.707455 -9.545313 -86.136158 2.356219 16.100400 52.721687 6.726821 -6.150226 9.202677 -2.726231 10.266337 -1.081880 1.217910 2.766392 0.000000 0.000000 0.000000 29.010849 3.941750 -10.950502 -12.410923 -30.429715 -18.550893 66.034501 19.155040 -6.513665 9.576284 -30.221545 11.517909 -6.343770 4.545461 -0.237956 0.000000 0.000000 0.000000 29.034810 10.110634 -14.339417 5.103744 4.622529 -13.171969 11.240864 8.533205 -4.522011 0.160858 0.322748 0.020031 0.000000 0.000000 0.000000 15.218298 9.594251 -5.203955 -17.259280 0.647264 12.050066 -34.104770 -31.774839 13.298171 0.000000 0.000000 0.000000 11.660167 8.946203 -5.150215 0.023878 5.541183 -1.143963 6.400464 -0.752132 -0.549656 7.859505 -44.966441 -22.649083 -14.169929 -28.463767 -6.221395 0.000000 0.000000 0.000000 13.522256 8.847769 -4.364965 -3.057454 12.992113 -13.071731 -1.630647 0.306709 0.999472 -32.643728 58.845543 52.999136 -15.511590 26.046279 -2.774454 0.000000 0.000000 0.000000 
-0.293423 100.510696 48.023247 0.000000 0.000000 0.000000 25.870002 3.916434 -9.331174 -83.469290 2.946403 14.893467 53.211231 7.296340 -5.751831 6.640354 -2.324295 9.741068 -0.311682 1.074197 2.421215 0.000000 0.000000 0.000000 26.979403 5.022414 -10.763526 -14.507914 -28.489366 -17.526380 63.035447 19.670057 -6.855872 8.115545 -28.189709 9.974968 -8.145804 4.500507 -1.356165 0.000000 0.000000 0.000000 27.040806 10.812169 -14.113368 5.109279 2.444478 -13.419623 10.932138 7.283731 -4.406293 0.113350 0.341055 -0.009797 0.000000 0.000000 0.000000 14.886811 8.340921 -5.061393 -16.526869 1.232215 10.685589 -33.798815 -27.401133 15.326226 0.000000 0.000000 0.000000 11.263014 7.711080 -5.049239 -0.105862 7.037849 -0.567019 7.034968 -1.671153 -0.728427 5.812634 -49.328589 -14.869448 -13.898116 -26.161370 -5.754524 0.000000 0.000000 0.000000 13.350097 7.635081 -4.241017 -2.733832 12.779617 -13.872329 -2.111448 0.506885 0.960643 -28.179648 55.928567 44.986904 -14.563261 25.045137 -5.617941 0.000000 0.000000 0.000000 
-0.144087 100.650269 49.844841 0.000000 0.000000 0.000000 23.993732 4.681961 -9.375186 -80.215026 3.427998 13.631008 53.495650 7.788586 -5.145124 4.371377 -1.859198 9.330354 0.422668 0.941596 1.832811 0.000000 0.000000 0.000000 24.760754 5.923721 -10.799827 -16.408321 -26.813540 -16.548828 59.691366 20.147743 -7.103657 7.777194 -25.739899 8.992318 -10.806421 4.331285 -1.854778 0.000000 0.000000 0.000000 24.937652 11.280168 -14.067507 5.079018 0.425308 -13.377001 10.798829 5.782923 -4.496778 0.123261 0.297990 -0.014089 0.000000 0.000000 0.000000 14.729083 6.831810 -5.137250 -15.591201 2.000210 9.172660 -32.816327 -22.708537 17.768087 0.000000 0.000000 0.000000 11.243013 6.181617 -5.134800 -0.260391 8.081984 0.304369 7.518572 -2.352842 -0.968365 1.256575 -53.179959 -9.327624 -13.605424 -23.293015 -5.625724 0.000000 0.000000 0.000000 13.470998 6.123275 -4.327881 -2.111488 12.764701 -15.393969 -2.559906 0.606307 0.641177 -24.736809 52.883966 38.018202 -14.312296 24.517620 -7.539863 0.000000 0.000000 0.000000 
0.059265 101.199051 51.694176 0.000000 0.000000 0.000000 22.145678 5.061553 -9.760183 -76.646143 3.910929 12.732489 53.749276 8.200492 -4.410252 2.407957 -1.473229 9.127324 0.971544 0.814673 1.087829 0.000000 0.000000 0.000000 22.570495 6.654874 -11.141165 -17.853148 -25.607335 -15.451479 55.151920 20.454168 -7.175082 7.414050 -23.059840 8.372524 -13.782362 4.173868 -2.226790 0.000000 0.000000 0.000000 22.659749 11.531843 -14.279542 5.079570 -1.483925 -12.992726 10.808710 4.091731 -4.703348 0.158024 0.245636 0.001880 0.000000 0.000000 0.000000 14.648990 5.126286 -5.329995 -14.401367 2.879288 7.614256 -31.334606 -17.777359 20.417693 0.000000 0.000000 0.000000 11.569348 4.410894 -5.270410 -0.425239 8.516904 1.445432 7.796957 -2.742010 -1.122167 -5.834243 -56.021109 -6.749299 -13.134298 -20.163849 -5.634483 0.000000 0.000000 0.000000 13.812429 4.377044 -4.530970 -1.283267 12.840399 -17.431027 -2.678609 0.844968 0.322791 -22.668220 49.874291 32.110823 -14.825016 24.731925 -8.331539 0.000000 0.000000 0.000000 
